<mxfile host="app.diagrams.net" agent="Mozilla/5.0 (Windows NT 10.0; Win64; x64) AppleWebKit/537.36 (KHTML, like Gecko) Chrome/132.0.0.0 Safari/537.36" version="26.0.11">
  <diagram id="nUCn4FgLN-XETiTd11oC" name="Pagina-1">
    <mxGraphModel dx="1290" dy="565" grid="1" gridSize="10" guides="1" tooltips="1" connect="1" arrows="1" fold="1" page="1" pageScale="1" pageWidth="827" pageHeight="1169" math="0" shadow="0">
      <root>
        <mxCell id="0" />
        <mxCell id="1" parent="0" />
        <mxCell id="EV9rTOfeoC3qAeonLUgA-1" value="&lt;p style=&quot;margin:0px;margin-top:4px;margin-left:10px;text-align:left;&quot;&gt;&lt;b&gt;std&lt;/b&gt;&amp;nbsp;OperationControl&lt;/p&gt;" style="html=1;shape=mxgraph.sysml.package;html=1;overflow=fill;whiteSpace=wrap;labelX=155.2;" vertex="1" parent="1">
          <mxGeometry x="49" y="60" width="661" height="410" as="geometry" />
        </mxCell>
        <mxCell id="EV9rTOfeoC3qAeonLUgA-3" value="&lt;p style=&quot;margin:0px;margin-top:4px;margin-left:10px;text-align:left;&quot;&gt;&lt;b&gt;std&lt;/b&gt;&amp;nbsp;InstelControl&lt;/p&gt;" style="html=1;shape=mxgraph.sysml.package;html=1;overflow=fill;whiteSpace=wrap;labelX=155.2;" vertex="1" parent="1">
          <mxGeometry x="827" y="60" width="730" height="660" as="geometry" />
        </mxCell>
        <mxCell id="EV9rTOfeoC3qAeonLUgA-4" value="" style="line;strokeWidth=1;fillColor=none;align=left;verticalAlign=middle;spacingTop=-1;spacingLeft=3;spacingRight=3;rotatable=0;labelPosition=right;points=[];portConstraint=eastwest;strokeColor=inherit;" vertex="1" parent="1">
          <mxGeometry x="827" y="176" width="730" height="8" as="geometry" />
        </mxCell>
        <mxCell id="EV9rTOfeoC3qAeonLUgA-9" style="edgeStyle=orthogonalEdgeStyle;rounded=0;orthogonalLoop=1;jettySize=auto;html=1;entryX=0.5;entryY=0;entryDx=0;entryDy=0;" edge="1" parent="1" source="EV9rTOfeoC3qAeonLUgA-5" target="EV9rTOfeoC3qAeonLUgA-8">
          <mxGeometry relative="1" as="geometry" />
        </mxCell>
        <mxCell id="EV9rTOfeoC3qAeonLUgA-5" value="" style="shape=ellipse;html=1;fillColor=strokeColor;fontSize=18;fontColor=#ffffff;" vertex="1" parent="1">
          <mxGeometry x="130" y="120" width="40" height="40" as="geometry" />
        </mxCell>
        <mxCell id="EV9rTOfeoC3qAeonLUgA-15" style="edgeStyle=orthogonalEdgeStyle;rounded=0;orthogonalLoop=1;jettySize=auto;html=1;entryX=0;entryY=0.5;entryDx=0;entryDy=0;" edge="1" parent="1" source="EV9rTOfeoC3qAeonLUgA-8" target="EV9rTOfeoC3qAeonLUgA-14">
          <mxGeometry relative="1" as="geometry" />
        </mxCell>
        <mxCell id="EV9rTOfeoC3qAeonLUgA-17" value="after(1000ms)" style="edgeLabel;html=1;align=center;verticalAlign=middle;resizable=0;points=[];" vertex="1" connectable="0" parent="EV9rTOfeoC3qAeonLUgA-15">
          <mxGeometry x="-0.143" y="-1" relative="1" as="geometry">
            <mxPoint x="5" y="9" as="offset" />
          </mxGeometry>
        </mxCell>
        <mxCell id="EV9rTOfeoC3qAeonLUgA-8" value="UpdateTime" style="shape=rect;rounded=1;html=1;whiteSpace=wrap;align=center;" vertex="1" parent="1">
          <mxGeometry x="95" y="220" width="110" height="40" as="geometry" />
        </mxCell>
        <mxCell id="EV9rTOfeoC3qAeonLUgA-28" style="edgeStyle=orthogonalEdgeStyle;rounded=0;orthogonalLoop=1;jettySize=auto;html=1;entryX=1;entryY=0.5;entryDx=0;entryDy=0;" edge="1" parent="1" source="EV9rTOfeoC3qAeonLUgA-12" target="EV9rTOfeoC3qAeonLUgA-41">
          <mxGeometry relative="1" as="geometry">
            <Array as="points">
              <mxPoint x="585" y="350" />
            </Array>
          </mxGeometry>
        </mxCell>
        <mxCell id="EV9rTOfeoC3qAeonLUgA-30" value="after(500us)&lt;div&gt;/&amp;nbsp; buzzTime += 500&lt;/div&gt;" style="edgeLabel;html=1;align=center;verticalAlign=middle;resizable=0;points=[];" vertex="1" connectable="0" parent="EV9rTOfeoC3qAeonLUgA-28">
          <mxGeometry x="-0.5814" y="-1" relative="1" as="geometry">
            <mxPoint x="56" y="45" as="offset" />
          </mxGeometry>
        </mxCell>
        <mxCell id="EV9rTOfeoC3qAeonLUgA-12" value="SoundAlarm" style="shape=rect;rounded=1;html=1;whiteSpace=wrap;align=center;" vertex="1" parent="1">
          <mxGeometry x="530" y="220" width="110" height="40" as="geometry" />
        </mxCell>
        <mxCell id="EV9rTOfeoC3qAeonLUgA-19" style="edgeStyle=orthogonalEdgeStyle;rounded=0;orthogonalLoop=1;jettySize=auto;html=1;entryX=0;entryY=0.5;entryDx=0;entryDy=0;" edge="1" parent="1" source="EV9rTOfeoC3qAeonLUgA-14" target="EV9rTOfeoC3qAeonLUgA-12">
          <mxGeometry relative="1" as="geometry" />
        </mxCell>
        <mxCell id="EV9rTOfeoC3qAeonLUgA-20" value="[Time.GetTime() == Alarm.GetTime()]" style="edgeLabel;html=1;align=center;verticalAlign=middle;resizable=0;points=[];" vertex="1" connectable="0" parent="EV9rTOfeoC3qAeonLUgA-19">
          <mxGeometry x="-0.2251" y="-1" relative="1" as="geometry">
            <mxPoint x="20" y="9" as="offset" />
          </mxGeometry>
        </mxCell>
        <mxCell id="EV9rTOfeoC3qAeonLUgA-26" style="edgeStyle=orthogonalEdgeStyle;rounded=0;orthogonalLoop=1;jettySize=auto;html=1;entryX=0.5;entryY=1;entryDx=0;entryDy=0;" edge="1" parent="1" source="EV9rTOfeoC3qAeonLUgA-14" target="EV9rTOfeoC3qAeonLUgA-8">
          <mxGeometry relative="1" as="geometry">
            <Array as="points">
              <mxPoint x="320" y="280" />
              <mxPoint x="150" y="280" />
            </Array>
          </mxGeometry>
        </mxCell>
        <mxCell id="EV9rTOfeoC3qAeonLUgA-27" value="&lt;div&gt;[else]&lt;/div&gt;/ Time.IncreaseTime(1);&lt;div&gt;/ display.displayTime(Time.GetTime());&lt;/div&gt;" style="edgeLabel;html=1;align=center;verticalAlign=middle;resizable=0;points=[];" vertex="1" connectable="0" parent="EV9rTOfeoC3qAeonLUgA-26">
          <mxGeometry x="-0.219" y="4" relative="1" as="geometry">
            <mxPoint x="-18" y="16" as="offset" />
          </mxGeometry>
        </mxCell>
        <mxCell id="EV9rTOfeoC3qAeonLUgA-14" value="" style="rhombus;whiteSpace=wrap;html=1;" vertex="1" parent="1">
          <mxGeometry x="300" y="220" width="40" height="40" as="geometry" />
        </mxCell>
        <mxCell id="EV9rTOfeoC3qAeonLUgA-31" style="edgeStyle=orthogonalEdgeStyle;rounded=0;orthogonalLoop=1;jettySize=auto;html=1;entryX=0.25;entryY=1;entryDx=0;entryDy=0;" edge="1" parent="1" source="EV9rTOfeoC3qAeonLUgA-21" target="EV9rTOfeoC3qAeonLUgA-8">
          <mxGeometry relative="1" as="geometry" />
        </mxCell>
        <mxCell id="EV9rTOfeoC3qAeonLUgA-37" value="[buzzTime == 300000&lt;span style=&quot;background-color: light-dark(#ffffff, var(--ge-dark-color, #121212)); color: light-dark(rgb(0, 0, 0), rgb(255, 255, 255));&quot;&gt;]&lt;/span&gt;" style="edgeLabel;html=1;align=center;verticalAlign=middle;resizable=0;points=[];" vertex="1" connectable="0" parent="EV9rTOfeoC3qAeonLUgA-31">
          <mxGeometry x="-0.4178" relative="1" as="geometry">
            <mxPoint x="13" y="10" as="offset" />
          </mxGeometry>
        </mxCell>
        <mxCell id="EV9rTOfeoC3qAeonLUgA-33" style="edgeStyle=orthogonalEdgeStyle;rounded=0;orthogonalLoop=1;jettySize=auto;html=1;entryX=0.25;entryY=1;entryDx=0;entryDy=0;exitX=0.5;exitY=0;exitDx=0;exitDy=0;" edge="1" parent="1" source="EV9rTOfeoC3qAeonLUgA-21" target="EV9rTOfeoC3qAeonLUgA-12">
          <mxGeometry relative="1" as="geometry">
            <Array as="points">
              <mxPoint x="380" y="300" />
              <mxPoint x="558" y="300" />
            </Array>
          </mxGeometry>
        </mxCell>
        <mxCell id="EV9rTOfeoC3qAeonLUgA-38" value="[else]" style="edgeLabel;html=1;align=center;verticalAlign=middle;resizable=0;points=[];" vertex="1" connectable="0" parent="EV9rTOfeoC3qAeonLUgA-33">
          <mxGeometry x="-0.0592" y="-2" relative="1" as="geometry">
            <mxPoint x="12" y="8" as="offset" />
          </mxGeometry>
        </mxCell>
        <mxCell id="EV9rTOfeoC3qAeonLUgA-21" value="" style="rhombus;whiteSpace=wrap;html=1;" vertex="1" parent="1">
          <mxGeometry x="359.5" y="330" width="40" height="40" as="geometry" />
        </mxCell>
        <mxCell id="EV9rTOfeoC3qAeonLUgA-42" style="edgeStyle=orthogonalEdgeStyle;rounded=0;orthogonalLoop=1;jettySize=auto;html=1;entryX=1;entryY=0.5;entryDx=0;entryDy=0;" edge="1" parent="1" source="EV9rTOfeoC3qAeonLUgA-41" target="EV9rTOfeoC3qAeonLUgA-21">
          <mxGeometry relative="1" as="geometry" />
        </mxCell>
        <mxCell id="EV9rTOfeoC3qAeonLUgA-44" value="[buzzerPin == LOW]&lt;div&gt;/ buzzerPin == HIGH&lt;/div&gt;" style="edgeLabel;html=1;align=center;verticalAlign=middle;resizable=0;points=[];" vertex="1" connectable="0" parent="EV9rTOfeoC3qAeonLUgA-42">
          <mxGeometry x="-0.14" y="3" relative="1" as="geometry">
            <mxPoint x="2" y="17" as="offset" />
          </mxGeometry>
        </mxCell>
        <mxCell id="EV9rTOfeoC3qAeonLUgA-43" style="edgeStyle=orthogonalEdgeStyle;rounded=0;orthogonalLoop=1;jettySize=auto;html=1;entryX=0.5;entryY=1;entryDx=0;entryDy=0;" edge="1" parent="1" source="EV9rTOfeoC3qAeonLUgA-41" target="EV9rTOfeoC3qAeonLUgA-21">
          <mxGeometry relative="1" as="geometry">
            <Array as="points">
              <mxPoint x="540" y="430" />
              <mxPoint x="380" y="430" />
            </Array>
          </mxGeometry>
        </mxCell>
        <mxCell id="EV9rTOfeoC3qAeonLUgA-41" value="" style="rhombus;whiteSpace=wrap;html=1;" vertex="1" parent="1">
          <mxGeometry x="520" y="330" width="40" height="40" as="geometry" />
        </mxCell>
        <mxCell id="EV9rTOfeoC3qAeonLUgA-46" value="[buzzerPin ==&amp;nbsp; HIGH]&lt;div&gt;/ buzzerPin == LOW&lt;/div&gt;" style="edgeLabel;html=1;align=center;verticalAlign=middle;resizable=0;points=[];" vertex="1" connectable="0" parent="1">
          <mxGeometry x="470" y="450" as="geometry" />
        </mxCell>
        <mxCell id="EV9rTOfeoC3qAeonLUgA-47" value="If you want to do anything other than the buzzer create a separate task for the buzzer otherwise it will be held up by say a display." style="text;html=1;align=center;verticalAlign=middle;whiteSpace=wrap;rounded=0;" vertex="1" parent="1">
          <mxGeometry x="520" y="90" width="150" height="80" as="geometry" />
        </mxCell>
      </root>
    </mxGraphModel>
  </diagram>
</mxfile>
